<svg id="bff2b596-fe60-45c8-b4e9-0f940a3f1f84" data-name="Layer 1" xmlns="http://www.w3.org/2000/svg" xmlns:xlink="http://www.w3.org/1999/xlink" viewBox="0 0 90.69 76.34"><defs><linearGradient id="ed925613-cd5f-4f73-bcf8-ff3fedc159f4" x1="67.42" y1="44.06" x2="67.51" y2="44.06" gradientUnits="userSpaceOnUse"><stop offset="0" stop-color="#d7263d"/><stop offset="0.08" stop-color="#c4253b"/><stop offset="0.54" stop-color="#5d1e33"/><stop offset="0.85" stop-color="#1b1a2d"/><stop offset="1" stop-color="#02182b"/></linearGradient><linearGradient id="a9757a23-26aa-4228-ba52-212c41ddcfe2" x1="40.73" y1="59.12" x2="64.37" y2="59.12" gradientUnits="userSpaceOnUse"><stop offset="0" stop-color="#fde05c"/><stop offset="1" stop-color="#d7263d"/></linearGradient><linearGradient id="bc2d3fa0-6bc8-42d3-a618-96e038d7113f" x1="36.94" y1="59.06" x2="60.58" y2="59.06" xlink:href="#a9757a23-26aa-4228-ba52-212c41ddcfe2"/><linearGradient id="e360099a-6e55-43c2-88bd-be8d207633df" x1="0" y1="29.46" x2="65.19" y2="29.46" xlink:href="#a9757a23-26aa-4228-ba52-212c41ddcfe2"/><linearGradient id="a4f1e747-f765-4462-b920-4bf2a17c1aa9" x1="53.45" y1="27.21" x2="90.69" y2="27.21" gradientUnits="userSpaceOnUse"><stop offset="0" stop-color="#13a9ff"/><stop offset="1" stop-color="#3800e9"/></linearGradient><linearGradient id="bdecf9f9-7900-4062-aecf-850c0f144411" x1="47.49" y1="27.12" x2="84.72" y2="27.12" xlink:href="#a4f1e747-f765-4462-b920-4bf2a17c1aa9"/></defs><title>logo-art</title><line x1="67.51" y1="44.06" x2="67.42" y2="44.06" fill="url(#ed925613-cd5f-4f73-bcf8-ff3fedc159f4)"/><line x1="67.51" y1="44.06" x2="67.42" y2="44.06" fill="url(#ed925613-cd5f-4f73-bcf8-ff3fedc159f4)"/><line x1="67.51" y1="44.06" x2="67.42" y2="44.06" fill="url(#ed925613-cd5f-4f73-bcf8-ff3fedc159f4)"/><path d="M61.41,65.3a22,22,0,0,1-20.68,11L60.58,41.89A22.06,22.06,0,0,1,61.41,65.3Z" fill="url(#a9757a23-26aa-4228-ba52-212c41ddcfe2)"/><path d="M60.58,41.89,40.73,76.28A22.08,22.08,0,0,1,60.58,41.89Z" fill="url(#bc2d3fa0-6bc8-42d3-a618-96e038d7113f)"/><path d="M60.58,41.89,40.73,76.28A22.08,22.08,0,0,1,60.58,41.89Z" fill="url(#bc2d3fa0-6bc8-42d3-a618-96e038d7113f)"/><path d="M57.56,47.63a15.26,15.26,0,0,1-20.85-5.58L31,32.14a15.24,15.24,0,0,1-1.55-3.76L0,24.45l29.08-3.87a2.56,2.56,0,0,1,.39,0,15.25,15.25,0,0,1,28-3.67l5.72,9.91A15.24,15.24,0,0,1,57.56,47.63Z" fill="url(#e360099a-6e55-43c2-88bd-be8d207633df)"/><path d="M86,37a34.77,34.77,0,0,1-32.57,17.3L84.72.09A34.74,34.74,0,0,1,86,37Z" fill="url(#a4f1e747-f765-4462-b920-4bf2a17c1aa9)"/><path d="M84.72.09,53.45,54.25A34.78,34.78,0,0,1,84.72.09Z" fill="url(#bdecf9f9-7900-4062-aecf-850c0f144411)"/><path d="M84.72.09,53.45,54.25A34.78,34.78,0,0,1,84.72.09Z" fill="url(#bdecf9f9-7900-4062-aecf-850c0f144411)"/></svg>